<svg xmlns="http://www.w3.org/2000/svg" width="1015.84" height="931.203"><path d="M677.227 931.2a42.391 42.391 0 01-18.92-4.444L339.926 767.568 63.321 925.616A42.31 42.31 0 010 888.876V211.649a42.269 42.269 0 0121.333-36.74L317.619 5.6a42.229 42.229 0 0139.915-1.14l318.381 159.191L952.52 5.6a42.31 42.31 0 0163.321 36.74v677.23a42.319 42.319 0 01-21.333 36.74L698.221 925.616a42.044 42.044 0 01-20.994 5.584zM338.613 677.243a42.523 42.523 0 0118.92 4.444l318.382 159.191L931.187 695.02V115.271L698.221 248.389a42.225 42.225 0 01-39.914 1.143L339.926 90.341 84.653 236.2v579.7l232.966-133.07a42.16 42.16 0 0120.994-5.587z" fill="#f0f0f0"/><path d="M338.614 761.896a42.315 42.315 0 01-42.327-42.326V42.343a42.327 42.327 0 1184.653 0V719.57a42.315 42.315 0 01-42.326 42.326zM677.227 931.203a42.288 42.288 0 01-42.327-42.326V211.65a42.327 42.327 0 0184.653 0v677.227a42.288 42.288 0 01-42.326 42.326z" fill="#f0f0f0"/></svg>