<svg xmlns="http://www.w3.org/2000/svg" width="438.419" height="438.417"><defs><clipPath id="a"><path d="M219.208 0c121.066 0 219.209 98.143 219.209 219.208s-98.143 219.209-219.209 219.209S0 340.274 0 219.208 98.143 0 219.208 0z" transform="translate(448 268)" fill="#85bdbf"/></clipPath></defs><g transform="translate(-448 -268)" clip-path="url(#a)"><path fill="#fadec1" d="M430.208 242.209h523v486h-523z"/><path d="M594.517 350.954l6.807 96.436a30.068 30.068 0 0029.993 27.95 30.066 30.066 0 0030-32.033c-.6-9.18-1.15-16.7-1.15-16.7s23.346-3.63 23.634-26.972c.167-13.482-2.158-44.075-4.152-67.512a30.612 30.612 0 00-30.51-28.007h-14.1a43.2 43.2 0 00-40.522 46.838z" fill="#b78876"/><path d="M660.209 426.273s-14.751 1.2-30.431-8.649c0 0 7.193 16.8 30.486 14.7z" fill="#aa6550"/><path d="M672.393 360.32a3.333 3.333 0 01-3.214 3.364 3.188 3.188 0 01-3.436-3.006 3.334 3.334 0 013.211-3.365 3.191 3.191 0 013.439 3.007zM675.63 355.532c-.414.435-2.938-1.434-6.527-1.424-3.583-.042-6.215 1.8-6.6 1.364-.191-.195.23-.979 1.376-1.814a9.145 9.145 0 015.287-1.63 8.79 8.79 0 015.194 1.676c1.099.848 1.472 1.634 1.27 1.828zM637.394 360.321a3.333 3.333 0 01-3.214 3.363 3.188 3.188 0 01-3.436-3.006 3.334 3.334 0 013.211-3.365 3.191 3.191 0 013.439 3.008zM640.371 356.202c-.414.435-2.943-1.435-6.527-1.425-3.583-.042-6.216 1.8-6.605 1.364-.19-.195.227-.979 1.377-1.813a9.137 9.137 0 015.286-1.631 8.786 8.786 0 015.2 1.677c1.095.847 1.47 1.633 1.269 1.828zM653.385 382.805c-.017-.2 2.213-.589 5.826-1.051.916-.094 1.783-.276 1.937-.9a4.658 4.658 0 00-.611-2.714q-1.293-3.324-2.709-6.975c-3.762-9.931-6.484-18.1-6.084-18.244s3.777 7.781 7.538 17.712l2.595 7.016c.347 1.041.943 2.221.475 3.6a2.3 2.3 0 01-1.505 1.339 6.217 6.217 0 01-1.555.216c-3.634.188-5.889.204-5.907.001zM642.832 385.285c.584-.034.591 3.86 3.924 6.623s7.478 2.335 7.508 2.881c.054.243-.925.755-2.676.8a9.7 9.7 0 01-6.267-2.184 8.449 8.449 0 01-3.041-5.554c-.149-1.624.287-2.585.552-2.566zM641.296 342.144c-.354.976-3.935.513-8.143 1.02-4.219.423-7.613 1.654-8.172.78-.248-.418.342-1.336 1.715-2.28a14.262 14.262 0 0112.428-1.371c1.546.622 2.324 1.389 2.172 1.851zM674.31 345.151c-.631.814-3.1-.031-6.074-.07-2.97-.144-5.487.547-6.066-.305-.253-.413.142-1.229 1.242-2a8.795 8.795 0 019.782.3c1.05.839 1.395 1.678 1.116 2.075z" fill="#263238"/><path d="M602.388 368.478c-.4-.173-16.037-4.743-15.528 11.215s16.425 12.154 16.439 11.7-.911-22.915-.911-22.915z" fill="#b78876"/><path d="M598.23 385.494c-.071-.049-.272.2-.735.435a2.786 2.786 0 01-2.077.109c-1.705-.565-3.211-3.2-3.38-6.069a9.17 9.17 0 01.652-4.005 3.209 3.209 0 012.023-2.2 1.416 1.416 0 011.665.709c.228.44.137.762.221.786.047.038.335-.278.185-.933a1.782 1.782 0 00-.659-.98 2.1 2.1 0 00-1.551-.357 3.9 3.9 0 00-2.827 2.564 9.45 9.45 0 00-.823 4.478c.206 3.213 1.947 6.169 4.276 6.763a2.98 2.98 0 002.529-.5c.485-.413.558-.773.501-.8z" fill="#aa6550"/><path d="M593.509 367.933c2.435-.589 6.645 1.658 7.682 3.937s1.266 4.861 2.3 7.141 3.374 4.343 5.811 3.766a4.91 4.91 0 003.325-3.642 13.491 13.491 0 00.048-5.146c-.941-7.453-2.507-14.843-2.807-22.349s.77-15.3 4.711-21.7 11.18-11.1 18.668-10.493c4.96.4 9.509 2.985 14.436 3.676a19.5 19.5 0 0016.2-5.407c.536-.534 3.026-2.176 3.026-2.176 0-.387-.364-3.72-1.679-4.934-9.775-9.04-27.389-11.564-40.3-8.315s-25.015 12.366-30.57 24.466-3.908 28.93-.847 41.175" fill="#263238"/><path d="M679.911 328.524s-61.237-19.7-87.727 33.278c0 0-3.959-13.258-3.959-20.365 0-4.747 2.839-33.016 31.927-41.908.005-.001 43.823-16.726 59.759 28.995z" fill="#e8505b"/><g><path d="M627.295 329.842a13.32 13.32 0 0021.2 1.929 7.853 7.853 0 0014.844-.778c1.78 1.726 3.631 3.5 5.958 4.35s5.276.53 6.8-1.421c1.556-1.988 1.1-5.014-.423-7.024a14.5 14.5 0 00-6.207-4.179 44.864 44.864 0 00-23.107-3.5c-7.812 1.057-15.378 4.845-20.26 11.034" fill="#263238"/></g><g opacity=".4"><path d="M679.911 328.524a28.454 28.454 0 00-19.473-8.842c-18.062-.8-51.873 9.359-68.254 42.12 0 0-3.959-13.258-3.959-20.365 0-4.747 2.839-33.016 31.927-41.908.005-.001 43.823-16.726 59.759 28.995z"/></g><g><path d="M594.742 355.6c9.081-13.893 21.6-25.379 35.677-34.173s37.356-17.491 53.394-21.749c4.816-1.278 9.838-2.4 14.747-1.547s9.716 4.117 10.934 8.949c1.525 6.048-9.208 15.379-14.252 19.049s-15.332 9.052-15.332 9.052.139-11.217-17.815-13.529c-24.42-3.146-67.353 33.948-67.353 33.948z" fill="#fe5200"/></g><path d="M644.965 309.84s8.824-4.882 17.686-6.019a22.821 22.821 0 00-4.806-2.885 45.55 45.55 0 00-13.782 4.634z" fill="#e0e0e0"/><g><path d="M694.664 446.685l-19.423-4.279-7.9-1.975-6.584-10.2s-3.139 18.239-14.89 28.058a13.656 13.656 0 01-11.572 2.777c-2.663-.559-5.787-1.249-8.1-1.867a20.33 20.33 0 01-1.615-.513 37.878 37.878 0 01-20-17.254c-2.615-4.637-4.816-9.4-4.065-11.2l-9.217 19.093-54.317 25.018-30.839 75.306 59.764 17.671 1.86 62.05-11.26 78.259 169.1.118-6-174.128" fill="#fe5200"/><path d="M650.948 514.09a6.187 6.187 0 01-1.066.023l-3.007-.071-10.75-.382-.211-.007-.008-.213c-.182-4.666-.4-10.19-.63-16.1l-.723-21.87-.157-6.63-.016-1.8a2.794 2.794 0 01.032-.63 2.846 2.846 0 01.077.626l.117 1.8.328 6.623.882 21.864c.2 5.913.391 11.437.55 16.106l-.219-.22 10.742.575 3 .2a6.039 6.039 0 011.059.106z" fill="#263238"/><path d="M641.732 488.938a1.409 1.409 0 01.8-.264 3.306 3.306 0 012.23.619 3.406 3.406 0 011.085 1.234 3.145 3.145 0 01.294 1.88 3.813 3.813 0 01-2.763 3.118 4.019 4.019 0 01-3.933-1.4 3.826 3.826 0 01-.742-3.344 4.136 4.136 0 011.117-2.023c.4-.381.679-.5.693-.481s-.209.218-.539.622a4.36 4.36 0 00-.9 1.959 3.5 3.5 0 00.75 2.949 3.571 3.571 0 003.425 1.2 3.36 3.36 0 002.4-2.67 2.823 2.823 0 00-1.115-2.733 3.306 3.306 0 00-1.993-.715c-.51-.005-.796.095-.809.049zM639.921 467.074a1.646 1.646 0 01.851-.387 3.676 3.676 0 012.526.371 3.725 3.725 0 011.355 1.2 3.378 3.378 0 01.559 2.018 4.035 4.035 0 01-2.728 3.67 4.131 4.131 0 01-4.325-1.506 3.629 3.629 0 01-.749-1.949 4.172 4.172 0 011.914-3.751 1.763 1.763 0 01.871-.335c.018.046-.294.161-.753.508a4.161 4.161 0 00-1.385 1.93 3.391 3.391 0 00.495 3.292 3.676 3.676 0 003.778 1.3 3.579 3.579 0 002.388-3.176 3.084 3.084 0 00-1.6-2.863 3.7 3.7 0 00-2.3-.5c-.578.07-.875.223-.897.178zM634.411 550.588a1.234 1.234 0 01.26-.119l.776-.3c.692-.234 1.677-.67 2.932-1.252a38.65 38.65 0 009.515-6.766 75.37 75.37 0 0010.894-13.515 191.27 191.27 0 0010.617-18.5 321.061 321.061 0 0015.073-35.719c1.7-4.667 3.01-8.466 3.93-11.088l1.063-3.017.289-.78a1.185 1.185 0 01.116-.261 1.051 1.051 0 01-.064.277l-.238.8-.966 3.05a477.829 477.829 0 01-3.769 11.149 298.865 298.865 0 01-14.952 35.835 184.936 184.936 0 01-10.683 18.528 74.055 74.055 0 01-11.048 13.52 37.444 37.444 0 01-9.685 6.677 27.343 27.343 0 01-2.987 1.165l-.8.249a1.056 1.056 0 01-.273.067z" fill="#263238"/><path d="M670.036 529.926c.443 0 10.737-.709 10.737-.709s-4.249 7.513-8.675 10.318h-9.008z" fill="#fafafa"/><path d="M632.611 573.339a3.729 3.729 0 01.588-.447l1.736-1.2a171.12 171.12 0 006.261-4.577c5.216-3.963 12.06-9.888 19.423-16.656 3.693-3.376 7.23-6.568 10.289-9.628a79.6 79.6 0 007.585-8.608 47.533 47.533 0 004.151-6.522c.449-.8.73-1.451.952-1.88a3.86 3.86 0 01.354-.648 3.663 3.663 0 01-.254.692c-.19.444-.442 1.114-.864 1.931a42.891 42.891 0 01-4.032 6.652 75.688 75.688 0 01-7.54 8.734c-3.052 3.092-6.586 6.3-10.277 9.675a254.843 254.843 0 01-19.556 16.562 119.842 119.842 0 01-6.374 4.448c-.77.5-1.382.865-1.794 1.116a3.841 3.841 0 01-.648.356zM603.601 688.285a1.119 1.119 0 01.128-.242l.423-.682c.379-.6.959-1.46 1.734-2.554 1.558-2.182 3.957-5.237 7.122-8.836 6.372-7.156 15.3-16.91 25.136-27.712l25.281-27.584 7.706-8.318 2.116-2.242.56-.574a1.026 1.026 0 01.2-.183 1.079 1.079 0 01-.163.22l-.521.609-2.04 2.311-7.58 8.434a281274.16 281274.16 0 00-25.163 27.691l-25.249 27.6c-3.2 3.559-5.632 6.569-7.238 8.708-.8 1.072-1.406 1.915-1.814 2.49-.189.266-.344.48-.467.652a.99.99 0 01-.171.212z" fill="#263238"/></g><path d="M693.318 446.161c.889 1.333 20.885 3.555 25.773 8.443s53.767 42.214 53.767 42.214l-34.818 46.96-22.5-4.953z" fill="#fe5200"/><path d="M766.971 492.31l-39.08 49.232 10.148 2.234 34.818-46.96z" opacity=".4"/><g><path d="M703.971 495.044a9.923 9.923 0 01-.4-1.635 18.659 18.659 0 01-.342-1.947c-.1-.765-.252-1.633-.3-2.6-.081-.968-.158-2.031-.151-3.174-.046-1.143.032-2.363.088-3.648a47.069 47.069 0 014.022-16.16c.553-1.161 1.056-2.275 1.633-3.264.53-1.014 1.1-1.915 1.621-2.733.5-.835 1.041-1.529 1.488-2.157a18.955 18.955 0 011.215-1.56 9.925 9.925 0 011.124-1.254 10.019 10.019 0 01-.958 1.383c-.328.428-.72.959-1.135 1.6s-.935 1.345-1.41 2.185c-.5.824-1.043 1.728-1.551 2.742-.554.989-1.037 2.1-1.572 3.254a49.319 49.319 0 00-3.98 16c-.069 1.27-.162 2.477-.137 3.61-.027 1.133.028 2.186.085 3.149.025.965.15 1.829.221 2.592s.161 1.417.249 1.95a10.1 10.1 0 01.19 1.667z" fill="#263238"/></g><g><path d="M719.615 533.619a102.126 102.126 0 01-4.323-9.546 101.977 101.977 0 01-3.826-9.757 102.549 102.549 0 014.323 9.547 102.45 102.45 0 013.826 9.756z" fill="#263238"/></g><g><path d="M565.909 499.533c-.083.044-.92-1.494-2.5-3.825a53.688 53.688 0 00-15.671-15.209c-2.377-1.512-3.94-2.3-3.9-2.386a5.421 5.421 0 011.139.473c.721.33 1.736.868 2.958 1.589a47.624 47.624 0 0115.79 15.323c.756 1.2 1.325 2.2 1.676 2.911a5.383 5.383 0 01.508 1.124z" fill="#263238"/></g><path d="M506.14 549.642l2.4-5.865 66.125 18-2.622 7.357z" opacity=".4"/><path d="M682.639 526.454h25.173v10.393l-32.2-.207s4.973-6.029 7.027-10.186z" fill="#fafafa"/><g opacity=".2"><path d="M592.855 451.591c.911 8.074 1.9 16.4 5.891 23.473s11.808 12.653 19.846 11.466c5.364-.793 9.906-4.38 13.558-8.387s6.71-8.563 10.7-12.238a46.977 46.977 0 008.028 6.906 15.77 15.77 0 0010.065 2.654c3.513-.422 5.448-1.812 6.557-5.172-3.75 1.165-5.813.991-9.54.268a26.109 26.109 0 01-11.298-5.193c-2.195-1.728-2.985-4.324-5.773-4.162-2.576.149-4.594 2.188-6.292 4.131a72.379 72.379 0 01-8.975 8.654c-3.093 2.451-6.109 4.108-10.054 4.022-6.512-.142-11.843-5.254-15.437-10.686a53.591 53.591 0 01-7.233-16.356"/></g><g><path d="M669.044 441.522a2.383 2.383 0 01.11.576c.051.381.135.941.2 1.666.154 1.45.31 3.556.371 6.164a88 88 0 01-1.934 20.257l-.034.164-.033.163-.161.04a22.059 22.059 0 01-11.148-.294 26.409 26.409 0 01-8.257-3.871 21.3 21.3 0 01-4.512-4.17 12.3 12.3 0 01-.978-1.354 2.308 2.308 0 01-.3-.5 26.114 26.114 0 006 5.712 26.8 26.8 0 008.171 3.7 21.85 21.85 0 0010.881.251l-.195.2.034-.163a94.781 94.781 0 002.08-20.139c-.011-2.6-.111-4.7-.2-6.151l-.1-1.673a2.519 2.519 0 01.005-.578z" fill="#263238"/></g><g><path d="M637.616 461.937a3.423 3.423 0 01-.331.62 17.782 17.782 0 01-1.147 1.655 44.172 44.172 0 01-5.089 5.367 130.279 130.279 0 01-3.836 3.367c-.7.592-1.409 1.211-2.19 1.825a19.8 19.8 0 01-2.561 1.649 15.894 15.894 0 01-6.241 1.9 11.808 11.808 0 01-6.825-1.509 21.774 21.774 0 01-5.352-4.508 52.405 52.405 0 01-4.028-5.093 51.8 51.8 0 01-5.272-9.623 49.988 49.988 0 01-2.32-7.022 28.214 28.214 0 01-.43-1.963 3.453 3.453 0 01-.1-.694 3.376 3.376 0 01.209.67c.117.443.281 1.1.527 1.933a57.522 57.522 0 002.469 6.927 53.347 53.347 0 009.34 14.51 21.441 21.441 0 005.224 4.393 11.322 11.322 0 006.524 1.452 15.5 15.5 0 006.047-1.808 19.663 19.663 0 002.507-1.587c.758-.587 1.485-1.208 2.189-1.79a147.142 147.142 0 003.868-3.308 49.7 49.7 0 005.181-5.216c.555-.667.956-1.21 1.22-1.583a3.4 3.4 0 01.417-.564z" fill="#263238"/></g><g><path d="M615.329 580.816l7.972-11.623s5.483-19.066 4.739-21.724-3.168-12.6-2.595-12.72 6.542-2.343 9.779 5.63c2.016 4.964 2.678 11.5 2.891 15.725a3.614 3.614 0 004.344 3.367c5.516-1.13 14.692-2.859 16.87-2.337 3.166.758 6 4.8 6.275 6.146s-1.91 4.406-1.91 4.406 2.691 1.378 3.518 3.457c.112.283.208.559.291.828a5.016 5.016 0 01-1.109 4.852l-.843.925s3.356.92 3.771 2.842a11.464 11.464 0 01-.115 4.24l-3.15 3.254a5.308 5.308 0 011.634 3.079c.162 1.773-4.564 6.153-4.564 6.153l-20.289 7.273-8.05 2.053z" fill="#b78876"/><path d="M663.754 567.702c.022.151-3.144.726-7.029 1.52a71.783 71.783 0 01-7.065 1.348 7.959 7.959 0 012-.693c1.256-.354 3.007-.785 4.957-1.183s3.73-.684 5.023-.849a7.856 7.856 0 012.114-.143zM665.61 577.735a30.247 30.247 0 01-5.367 1.92 30.3 30.3 0 01-5.526 1.4 30.285 30.285 0 015.369-1.919 30.417 30.417 0 015.524-1.401zM666.82 587.638a37.669 37.669 0 01-5.7 2.787 37.554 37.554 0 01-5.919 2.295 37.564 37.564 0 015.7-2.787 37.385 37.385 0 015.919-2.295z" fill="#aa6550"/><path d="M568.576 652.69l74.617-50.058-18.823-34.1-68.107 35.026 7.727-36.8-46.219-13.671-11.532 62.969c-1.785 28.017 20.686 50.639 47.779 43.281a49.34 49.34 0 0014.558-6.647z" fill="#b78876"/><g><path d="M546.407 623.314a3.1 3.1 0 01-.257-.938 15.7 15.7 0 01-.259-2.638 18.321 18.321 0 017.555-15.146 15.707 15.707 0 012.264-1.381 3.073 3.073 0 01.9-.359c.046.086-1.207.678-2.937 2.043a19.281 19.281 0 00-7.4 14.843c-.05 2.204.232 3.56.134 3.576z" fill="#aa6550"/></g></g><g><path d="M738.039 543.777c.467-.636 53.144 31.452 53.144 31.452l16.881 76.932 24.3 8.917s7.588-85.609 1.812-98.939-64.3-61.265-64.3-61.265z" fill="#b78876"/><path d="M802.688 569.326a17.152 17.152 0 01-10.378 6.678 57.838 57.838 0 005.519-2.827 57.783 57.783 0 004.859-3.851z" fill="#aa6550"/><path d="M674.689 543.944l4.122 73.832 84.182-5.69-2.548-54.962-12.255-16.5z" fill="#263238"/><path d="M655.548 619.419c.256 1.419 7.4 68.29 7.4 68.29l125.288-8.713 21.2-2.837-9.777-62.275-14.979-3.584z" fill="#e8505b"/><path d="M784.687 610.3l-129.138 9.119c.256 1.419 7.4 68.29 7.4 68.29l130.44-9.072z" opacity=".4"/><path d="M750.374 612.939l-71.563 4.833-4.122-73.832 73.5-3.318z" fill="#455a64"/><path d="M701.37 542.739l1.508 22.754 3.828-2.191 2.127 2.191 2.633-2.191 4.075 2.191v-23.394z" fill="#263238"/><path d="M731.287 614.49l-4.9-55.414 47.837 13.185 4.611 38.245z" fill="#fe5200"/><path d="M774.221 572.257a2.012 2.012 0 01-.3.4l-.924 1.089-3.517 4.016-12.226 13.708-.186.209-.195-.2c-2.042-2.141-4.24-4.443-6.51-6.824l-17.04-18.008-5.12-5.5-1.372-1.515a3.524 3.524 0 01-.451-.553 3.5 3.5 0 01.53.478l1.445 1.444 5.244 5.382 17.154 17.9 6.5 6.837-.381.005 12.366-13.58 3.63-3.914.988-1.033a2.08 2.08 0 01.365-.341zM747.401 582.525c.131.07-3.279 6.612-7.614 14.607s-7.959 14.423-8.09 14.352 3.279-6.611 7.616-14.609 7.958-14.421 8.088-14.35zM777.722 610.502c-.128.077-3.443-5.221-7.405-11.83s-7.071-12.031-6.944-12.108 3.443 5.219 7.406 11.83 7.07 12.032 6.943 12.108z" fill="#263238"/><path d="M756.967 612.324l-3.12-35.288 30.463 8.4 2.936 24.355z" fill="#e8505b"/><path d="M756.967 612.324l-3.12-35.288 30.463 8.4 2.936 24.355z" fill="#fff" opacity=".4"/><path d="M784.307 585.432a6.414 6.414 0 01-.753.967l-2.219 2.576-7.759 8.752-.186.21-.195-.2-4.149-4.342c-4.253-4.466-8.08-8.529-10.83-11.488l-3.237-3.524a10.86 10.86 0 01-1.134-1.343 10.987 10.987 0 011.286 1.2l3.361 3.406c2.822 2.892 6.692 6.914 10.945 11.379l4.135 4.357-.381.005 7.9-8.625 2.331-2.475a6.428 6.428 0 01.885-.855zM767.231 591.971a102.112 102.112 0 01-4.763 9.349 102.423 102.423 0 01-5.238 9.093 102.158 102.158 0 014.764-9.349 102.362 102.362 0 015.237-9.093zM786.539 609.787a73.624 73.624 0 01-4.8-7.484 73.434 73.434 0 01-4.338-7.761 73.319 73.319 0 014.8 7.485 73.681 73.681 0 014.338 7.76z" fill="#263238"/><path d="M776.384 583.94v2.839l4.449.516.232-2.166zM760.681 569.548v4.149l8.4 1.385.464-3.157z" fill="#fff"/><path d="M727.891 635.123l-.413-20.637-16.74 1.131 1.794 20.958z" fill="#e8505b"/><g><path fill="#fafafa" d="M754.322 648.657l28.086-2.663 2.356 24.845-28.086 2.663z"/><path d="M784.762 670.839a4.34 4.34 0 01-.07-.477l-.153-1.344-.539-5.054-1.82-17.948.249.206-28.08 2.7c-.056.063.457-.554.241-.29v.047l.005.053.01.107.02.211.04.422.08.842.158 1.674.311 3.3.6 6.406c.387 4.168.753 8.121 1.094 11.779l-.26-.213 20.267-1.8 5.757-.483 1.537-.117a4.45 4.45 0 01.547-.025 3.076 3.076 0 01-.489.074l-1.486.169-5.691.6-20.4 2.055-.236.024-.024-.238-1.139-11.775-.614-6.4-.315-3.3q-.081-.833-.159-1.674l-.081-.842-.039-.422-.011-.211-.009-.107-.005-.053v-.046c-.217.26.294-.363.244-.3l28.087-2.622.229-.022.02.228 1.6 18.113.416 5.016c.041.542.073.974.1 1.3a2.538 2.538 0 01.008.437z" fill="#263238"/><path d="M780.213 651.946c.016.149-4.894.786-10.964 1.426s-11.007 1.038-11.022.89 4.893-.785 10.965-1.426 11.005-1.035 11.021-.89zM780.05 656.167a15.98 15.98 0 01-3.019.747c-1.882.376-4.5.811-7.41 1.154s-5.559.524-7.478.593a15.891 15.891 0 01-3.109-.028 19.982 19.982 0 013.085-.352c1.907-.168 4.539-.409 7.438-.748s5.515-.715 7.409-.994a20.035 20.035 0 013.084-.372zM781.235 665.398a16.082 16.082 0 01-3.018.747c-1.883.376-4.5.811-7.411 1.154s-5.559.522-7.478.593a15.891 15.891 0 01-3.109-.028 20 20 0 013.085-.352c1.907-.168 4.539-.409 7.439-.748s5.514-.715 7.408-.994a19.888 19.888 0 013.084-.372zM779.82 660.668a100.535 100.535 0 01-10.239 1.736 100.414 100.414 0 01-10.317 1.2 99.9 99.9 0 0110.241-1.736 100.4 100.4 0 0110.315-1.2z" fill="#263238"/></g><g><path d="M804.619 699.142s23.124-15.3 24.9-23.123 2.845-14.942 2.845-14.942l-24.7-10.233 2.451 8.9s-8.86 5.269-9.763 11.647c-.6 4.257-12.054 11.532-12.054 11.532a9.455 9.455 0 00-7.946-3.4l-9.622.68 6.5 14.668z" fill="#b78876"/><path d="M813.655 678.172a3.81 3.81 0 01-1.094.444c-.72.24-1.8.477-3.063.893a12.572 12.572 0 00-4.015 2.331 20 20 0 01-4.943 3.141 16.747 16.747 0 01-10.488.878 5.505 5.505 0 01-1.754-.651 1.281 1.281 0 01-.639-1.28.948.948 0 01.518-.747c.207-.076.321-.029.318-.019s-.111.022-.268.116a.862.862 0 00-.36.676 1.05 1.05 0 00.6 1 5.514 5.514 0 001.674.531 17.169 17.169 0 0010.193-1 20.541 20.541 0 004.851-3.036 12.36 12.36 0 014.2-2.3c1.315-.379 2.392-.556 3.124-.732a7.158 7.158 0 011.146-.245z" fill="#aa6550"/><path d="M797.636 690.04c-.044.077-1.188-.6-3.156-1.414a28.459 28.459 0 00-8.021-2c-.809-.087-1.6-.111-2.37-.128h-.146l-.076-.118a25.042 25.042 0 00-4.3-5.078c-1.244-1.124-2.076-1.705-2.033-1.767a2.057 2.057 0 01.643.336 16.827 16.827 0 011.613 1.171 21.98 21.98 0 014.525 5.053l-.221-.121c.782.01 1.593.031 2.42.119a25.267 25.267 0 018.121 2.184 21.189 21.189 0 012.249 1.205 3.09 3.09 0 01.752.558zM803.883 685.838c.047.152-1.566.735-3.383 1.775s-3.152 2.115-3.258 2a11.266 11.266 0 016.642-3.771zM816.408 658.331c-.021.16-1.6-.035-3.454.461-1.857.471-3.144 1.414-3.241 1.285a6.692 6.692 0 016.694-1.747z" fill="#aa6550"/></g></g></g><path d="M401.513 48.591a47.61 47.61 0 10-88.648 24.053h-.025l.135.178c1.825 3.077 4.113 5.277 6.423 8.51l27.642 36.617a8.6 8.6 0 0013.724 0l27.183-36.014a102.493 102.493 0 006.914-9.161l.1-.129h-.019a47.311 47.311 0 006.571-24.054zM353.904 69.32a20.952 20.952 0 1120.952-20.956 20.952 20.952 0 01-20.952 20.957z" fill="#fe5100"/><path d="M437.92 130.297a25.673 25.673 0 10-47.8 12.971h-.014l.073.1c.984 1.66 2.218 2.846 3.464 4.588l14.906 19.746a4.636 4.636 0 007.4 0l14.658-19.42a55.308 55.308 0 003.728-4.94l.053-.069h-.01a25.514 25.514 0 003.542-12.976zm-25.674 11.174a11.3 11.3 0 1111.3-11.3 11.3 11.3 0 01-11.3 11.3z" fill="none" stroke="#fe5100"/></svg>